# xmcd
#
# Track frame offsets:
#	150
#	21134
#	45253
#	67795
#	85672
#	97634
#	115188
#	137701
#	157046
#	177919
#	196966
#	213135
#	226046
#	237462
#	251049
#	260425
#	272950
#	289152
#	303930
#
# Disc length: 4269 seconds
#
# Revision: 0
# Processed by: cddbd v1.4PL0 Copyright (c) Steve Scherf et al.
# Submitted via: MusicWizard 6.0.1
#
DISCID=f710ab13
DTITLE=Various Artist - Keb Mo Soon As I Get Paid
DYEAR=1900
DGENRE=Blues
TTITLE0=Keb Mo - Soon As I Get Paid
TTITLE1=Keb Mo - Henry
TTITLE2=Keb Mo - Dangerous Mood
TTITLE3=Keb Mo - Everything I Need - Slow Down
TTITLE4=Keb Mo - Lullaby Baby Blues
TTITLE5=Keb Mo - Till It Shines
TTITLE6=Madness - Our House
TTITLE7=Seals And Crofts - We May Never Pass This Way Again
TTITLE8=Seals And Crofts - Summer Breeze
TTITLE9=Seals And Crofts - Diamond Girl
TTITLE10=Randy Travis - Forever And Ever Amen
TTITLE11=Johnny Rivers - Seventh Son
TTITLE12=Sam Cooke - Cupid
TTITLE13=Belle Stars - Iko Iko
TTITLE14=Dixie Cups - Iko Iko
TTITLE15=Commander Cody and  His Lost Planet Airmen - Hot Rod Lincoln
TTITLE16=Badfinger - Baby Blue
TTITLE17=Rose Royce - Car Wash
TTITLE18=Loggins And Messina - House On Pooh Corner
EXTD=
EXTT0=
EXTT1=
EXTT2=
EXTT3=
EXTT4=
EXTT5=
EXTT6=
EXTT7=
EXTT8=
EXTT9=
EXTT10=
EXTT11=
EXTT12=
EXTT13=
EXTT14=
EXTT15=
EXTT16=
EXTT17=
EXTT18=
PLAYORDER=
